<svg xmlns="http://www.w3.org/2000/svg" width="24" height="16" viewBox="0 0 24 16">
    <path fill="#001F40" d="M22.112 0C23.155 0 24 .845 24 1.888v11.316c0 .808-.507 1.497-1.221 1.767-.001 0-.002 0-.002.002-.117.108-.277.142-.42.104-.08.01-.162.015-.245.015H1.888C.846 15.092 0 14.247 0 13.204V1.888C0 .845.846 0 1.888 0h20.224zm-6.469 7.989l-3.352 2.902c-.167.145-.414.145-.581 0l-3.153-2.73-5.647 6.043h18.541l-5.808-6.215zM.888 1.889v11.315c0 .492.356.902.824.985l6.174-6.61L.941 1.566c-.035.1-.053.21-.053.322zm22.172-.322l-6.746 5.84 6.25 6.69c.325-.165.548-.503.548-.893V1.888c0-.112-.018-.22-.052-.32zm-.948-.68H1.888c-.109 0-.214.018-.313.05l10.426 9.031L22.428.938c-.1-.032-.206-.05-.316-.05z"/>
</svg>
