<svg xmlns="http://www.w3.org/2000/svg" width="22" height="23" viewBox="0 0 22 23">
    <path fill="#002857" fill-rule="evenodd" d="M21.87 21.913c-.086.087-.2.13-.342.13-.145 0-.258-.043-.345-.13L11 11.73.817 21.913c-.23.23-.46.23-.688 0C.043 21.827 0 21.714 0 21.57c0-.143.043-.258.13-.344l10.182-10.183L.13.859C.043.773 0 .66 0 .515 0 .37.043.257.13.172c.228-.23.457-.23.687 0L11 10.355 21.183.172c.23-.23.458-.23.688 0 .086.085.129.2.129.343 0 .144-.043.258-.13.344L11.689 11.043 21.87 21.226c.086.086.129.2.129.344 0 .144-.043.257-.13.343"/>
</svg>
