<?xml version="1.0" encoding="utf-8"?>
<!-- Generator: Adobe Illustrator 24.1.0, SVG Export Plug-In . SVG Version: 6.00 Build 0)  -->
<svg version="1.1" id="Layer_1" xmlns="http://www.w3.org/2000/svg" xmlns:xlink="http://www.w3.org/1999/xlink" x="0px" y="0px"
	 viewBox="0 0 1534 464" style="enable-background:new 0 0 1534 464;" xml:space="preserve">
<style type="text/css">
	.st0{fill:#FFFFFF;}
</style>
<g>
	<g>
		<path class="st0" d="M22.2,114.4c2.8-4.6,24.4-8.3,42.7-11.4c0,0,29-4.2,31.6-4.4c2.6-0.3,12.3-2.1,13.3,5
			c1.2,8.5-6.9,8.2-12.4,12.6c-4.5,3.5-7.4,21.5-9.4,147.4c-2,132.7-2.2,140.7,4.4,147.3c10.3,9.3,25.9,2.7,28.5,4.8
			c2.6,2.1,3.2,8.6,1.5,10.7c-1.7,2.1-9.6-0.3-45.8,5.4c-20.8,3.3-38,14.1-41.4,12c-1.5-1-2.9-3.5-2.6-8.2
			c0.2-3.1,11.3-6.8,16.5-18.1c2.5-5.4,5.6-43.5,4.8-153.4c-0.8-109.9,1.5-143.3-0.8-143.9c-2.3-0.6-26.6,7.5-29.8,5.2
			C20.7,123.3,22.2,114.4,22.2,114.4"/>
		<path class="st0" d="M109.4,260.7c0,0,23.4-22.3,70.2-80c46.8-57.7,55.6-71.3,66.7-81c2-1.7,8.7-0.6,13.2-0.7
			c4.5,0,10.6-0.4,11.7,1.8c2.4,4.8-14.1,28.9-60.4,82.5c-40,46.4-42.8,46.2-62.3,67.9c6.9,10.5,14.6,27.6,58.7,87.9
			c44.1,60.4,66,73.8,76.1,81c10.1,7.2,21.3,9.5,20.6,15c-0.6,4.6-12.4,3.1-16.5,3.1c-4.1,0-29.9-1.8-44.9-11.3
			c-15-9.5-34.1-25.3-69.6-74.3C137.4,303.7,109.4,260.7,109.4,260.7"/>
		<path class="st0" d="M280.6,249.7c12.4,30.8,25.1,61.6,25.1,61.6s54.7-102.9,63.6-122.1c1.2-2.7,3.1-3.5,4.3-3.4
			c3,0.3,3.3,0.9,4,15.1c0.7,15-0.8,21.9-2.8,25.4c-11.4,20.3-93.7,160.6-96,163.9c-2.3,3.4-3.4,4.1-4.4,5c-1,0.9-9.8,2.8-11.7,0.1
			c-1.9-2.7,2.5-7.7,3.9-10.6c1.4-2.8,21.2-36.2,21.2-43.3c0-11.5-16.7-42-45.8-109.8c-2.8-6.6-6.6-13.4-12.4-15
			c-7.8-2.2-14.3,4.5-17.7,3.9c-3.4-0.6-4.9-5.9-4.5-7.9c0.4-1.9,11.1-5.6,23.2-11.2c12.1-5.7,21.7-11.5,24.8-11.4
			C257.2,190.2,268.7,220,280.6,249.7"/>
		<path class="st0" d="M408.7,335c-17.2,0-20.5-13.2-20.5-19.2c0-36.6,63.5-47,63.5-47S456.3,335,408.7,335 M509.1,340.8
			c-0.8-1.7-2.3-2.8-3.6-2.8c-25.3,0-29.4-25.5-29.4-40s2.1-49.8,1.3-60.6c-0.8-10.8-2.1-28.6-10.8-36.4c-8.8-7.7-18.8-8.8-34.8-8.8
			c-16,0-27.6,2.6-34,8.8c-6.5,6.2-6.5,19.3-4.9,20.9c2.7,2.7,33.5-15,48.1-0.3c15.1,15.1,10.4,37.2,10.4,37.2s-92.9,13.1-92.9,68.4
			c0,6.2,2.6,28,30,28c36.4,0,60.6-31.5,60.6-31.5s1.3,31.1,28.6,31.1c22.1,0,30.8-9.8,31.3-10.6
			C509.7,343.2,509.9,342.5,509.1,340.8"/>
		<path class="st0" d="M410.6,144.2c0,6-4.2,10.8-9.5,10.8c-5.2,0-9.5-4.8-9.5-10.8c0-6,4.2-10.8,9.5-10.8
			C406.4,133.4,410.6,138.3,410.6,144.2"/>
		<path class="st0" d="M462.9,143.9c0,6.1-4.4,11-9.9,11s-9.9-4.9-9.9-11c0-6.1,4.4-11,9.9-11S462.9,137.8,462.9,143.9"/>
		<path class="st0" d="M540.3,218.5c3.5-3,35.6-24,60.6-24c25,0,35.1,20.1,35.1,76.1c0,35.2-1.8,42.8-1.8,53.9
			c0,6.7,3.6,6.7,6.4,6.7s9.5-3.5,11.6-3.5c2.1,0,3.2,3.5,3.2,6.1c0,5.4-11.3,6.7-23.6,11.9c-11.4,4.8-22.4,12.6-25.3,12.6
			c-2.3,0-3.7-3.2-3.7-4.3c0-1.5,7.6-21.5,7.6-67.4c0-45.9-9.3-71.2-35.6-71.2c-18.6,0-32.4,16.6-32.4,16.6s0.1,20,0.1,41.2
			c0,21.2,0.2,71.1-1.8,74.5c-1.4,2.4-3.9,2.1-9.5,4.1c-5.6,2.1-13.7,6.6-13.9,0.9c-2.6-67.5,9.1-135.8-20.6-135.8
			c-3.1,0-4.1,1.3-6.7,1.3c-2.6,0-4.1-3.1-4.1-5.4c0-3.4,7.2-4.6,17.8-10.1c10.6-5.4,15.6-10.7,17.6-10.7
			C530.2,192.1,539.7,215.2,540.3,218.5"/>
		<path class="st0" d="M698.7,347c2.8-5.7,1.3-40.8,1.3-113.5c0-12.6,1.8-30.1,1.8-35.8c0-2.4-4.2-5.7-6-5.7s-13.5,5.6-19.5,8.4
			c-8.8,4.2-28,6.9-28,12.3c0,5.4,3,7,4,6.8c2.5-0.4,5.2-3.2,9.8-2.6c13.9,2,10.6,9,10.6,123.8c0,12.1,0.7,15.7,2.3,16.5
			c1.5,0.8,9.2-2.7,13-4.3C691.8,351.4,696.9,350.7,698.7,347"/>
		<path class="st0" d="M664,78.2c-18.1,25.2-38.5,32.6-51.5,30.6c-1.5-5.4-2.3-11-2.3-16.8c0-35.4,30.1-64.1,67.3-64.1
			c24.9,0,45.7,13.1,57.3,32.3C731.5,55.6,702.2,24.9,664,78.2 M711.1,28.8c-11.1-6.2-23.1-9.2-35-9.2c-24.9,0-49.2,13.1-62.3,36.4
			c-18.9,33.6-7.7,75.9,24.8,95.9c4.6-0.8,9.4-4,13.3-12c13.3-27.5,41.6-38.1,70.2-19.4c1.1,0.9,2.4,1.9,3.7,3.1
			c-13.8,0.8-21.2,16.9-21.2,16.9c0,0.1-1,1.8-1.6,2.7c-5,8.3-12,15.1-20.1,19c22.4-2.2,43.5-14.9,55.4-36.1
			C757.7,91.7,745.5,48.2,711.1,28.8"/>
		<path class="st0" d="M671.6,137.9c-13.3,22.4-30.5,30.3-51.5,18c0.3,0.4,35.6,26.3,57.8-9.8c17.1-28.2,35-23.9,35-23.9
			s-3.8-0.9-9.3-0.9C694.2,121.2,680,123.8,671.6,137.9"/>
		<path class="st0" d="M732.6,202.5h2.3c1.9,0,3.6-0.1,3.6-2.2c0-1.9-1.6-2.1-3-2.1h-2.9V202.5z M730.8,196.5h4.9
			c3.2,0,4.7,1.2,4.7,3.8c0,2.4-1.5,3.4-3.5,3.6l3.8,5.9h-2l-3.7-5.7h-2.4v5.7h-1.9V196.5z M735.1,213c5.4,0,9.8-4.3,9.8-9.9
			c0-5.5-4.3-9.8-9.8-9.8c-5.4,0-9.8,4.2-9.8,9.9C725.3,208.7,729.7,213,735.1,213 M735.1,191.6c6.3,0,11.6,5,11.6,11.5
			c0,6.6-5.3,11.6-11.6,11.6c-6.3,0-11.6-5-11.6-11.5C723.5,196.6,728.8,191.6,735.1,191.6"/>
	</g>
	<g>
		<rect x="869.9" y="156.6" class="st0" width="6.4" height="75.3"/>
		<path class="st0" d="M940.3,194.2c0,11.5,0.1,19.2,0.7,28.1c-3.5-6.7-7.7-13.3-13-21.5l-29-44.1h-5.8v75.3h6.2v-38.1
			c0-11.2-0.1-19.1-0.5-27.6c3.8,7.2,8.5,14.5,13.5,22.2l28.5,43.4h5.7v-75.3h-6.2V194.2z"/>
		<path class="st0" d="M982.9,156.1c-6.4,0-12.7,0.5-19.1,1.7l-0.5,0.1v74.1l0.5,0c4.7,0.4,9.7,0.6,16.6,0.6
			c14.2,0,25.7-4.1,32.4-11.5c6.5-7.2,9.8-16.7,9.8-28.4c0-11-3.1-19.6-9.4-26.1C1006.9,159.6,996.4,156.1,982.9,156.1z M981.2,227
			c-5.4,0-8.9-0.1-11.5-0.5v-63.8c2.7-0.5,7-1.1,12.9-1.1c11.4,0,20.1,2.9,25.8,8.7c5.3,5.3,7.9,12.9,7.8,22.4
			C1016.2,214.8,1003.7,227,981.2,227z"/>
		<polygon class="st0" points="1040.9,195 1070.6,195 1070.6,189.5 1040.9,189.5 1040.9,162.1 1072.3,162.1 1072.3,156.6 
			1034.6,156.6 1034.6,231.9 1074.1,231.9 1074.1,226.4 1040.9,226.4 		"/>
		<path class="st0" d="M1102.4,156.1c-5.3,0-10.7,0.5-16.1,1.4l-0.5,0.1v74.3h6.4v-31.5c2.4,0.6,5.1,0.7,8.5,0.7
			c9.5,0,17.4-3,22.2-8.4c3.6-3.9,5.3-8.9,5.3-15.2c0-6.1-2-11.3-5.9-14.9C1118,158.3,1111.1,156.1,1102.4,156.1z M1101.2,195.6
			c-4.1,0-6.8-0.3-8.9-0.9v-32.3c1.3-0.3,4.6-0.8,9.9-0.8c12.5,0,19.7,6,19.7,16.4C1121.9,189.2,1114.3,195.6,1101.2,195.6z"/>
		<polygon class="st0" points="1147.5,195 1177.1,195 1177.1,189.5 1147.5,189.5 1147.5,162.1 1178.9,162.1 1178.9,156.6 
			1141.1,156.6 1141.1,231.9 1180.6,231.9 1180.6,226.4 1147.5,226.4 		"/>
		<path class="st0" d="M1239.7,194.2c0,11.5,0.1,19.2,0.7,28.1c-3.5-6.7-7.7-13.3-13-21.5l-29-44.1h-5.8v75.3h6.2v-38.1
			c0-11.2-0.1-19.1-0.5-27.6c3.8,7.2,8.5,14.5,13.5,22.2l28.5,43.4h5.7v-75.3h-6.2V194.2z"/>
		<path class="st0" d="M1282.3,156.1c-6.4,0-12.7,0.5-19.1,1.7l-0.5,0.1v74.1l0.5,0c4.7,0.4,9.7,0.6,16.6,0.6
			c14.2,0,25.7-4.1,32.4-11.5c6.5-7.2,9.8-16.7,9.8-28.4c0-11-3.1-19.6-9.4-26.1C1306.2,159.6,1295.7,156.1,1282.3,156.1z
			 M1280.5,227c-5.4,0-8.9-0.1-11.5-0.5v-63.8c2.7-0.5,7-1.1,12.9-1.1c11.4,0,20.1,2.9,25.8,8.7c5.3,5.3,7.9,12.9,7.8,22.4
			C1315.5,214.8,1303.1,227,1280.5,227z"/>
		<polygon class="st0" points="1340.3,195 1369.9,195 1369.9,189.5 1340.3,189.5 1340.3,162.1 1371.7,162.1 1371.7,156.6 
			1333.9,156.6 1333.9,231.9 1373.4,231.9 1373.4,226.4 1340.3,226.4 		"/>
		<path class="st0" d="M1432.4,194.2c0,11.5,0.1,19.2,0.7,28.1c-3.5-6.7-7.7-13.3-13-21.5l-29-44.1h-5.8v75.3h6.2v-38.1
			c0-11.2-0.1-19.1-0.5-27.6c3.8,7.2,8.5,14.5,13.5,22.2l28.5,43.4h5.7v-75.3h-6.2V194.2z"/>
		<polygon class="st0" points="1445.3,156.6 1445.3,162.1 1469.5,162.1 1469.5,231.9 1475.9,231.9 1475.9,162.1 1500.1,162.1 
			1500.1,156.6 		"/>
	</g>
	<g>
		<path class="st0" d="M864.9,268c2.9-0.6,8.8-1.1,14.4-1.1c6.8,0,11,0.7,14.6,2.8c3.4,1.8,5.9,5.2,5.9,9.7c0,4.3-2.6,8.3-8,10.5
			v0.1c5.6,1.5,9.8,5.8,9.8,12.1c0,4.5-2,8-5.1,10.5c-3.6,2.9-9.6,4.5-19.4,4.5c-5.5,0-9.6-0.4-12.1-0.7V268z M876,286.8h3.7
			c5.9,0,9-2.4,9-6.1c0-3.7-2.9-5.7-7.9-5.7c-2.5,0-3.9,0.1-4.8,0.4V286.8z M876,308.7c1.1,0.2,2.4,0.2,4.3,0.2c5,0,9.5-2,9.5-7.2
			c0-5-4.5-6.9-10-6.9H876V308.7z"/>
		<path class="st0" d="M920.2,267.3v28.3c0,8.6,3.3,12.9,8.9,12.9c5.9,0,9.1-4.1,9.1-12.9v-28.3h11.1V295c0,15.2-7.7,22.5-20.6,22.5
			c-12.4,0-19.7-6.9-19.7-22.6v-27.5H920.2z"/>
		<path class="st0" d="M959.4,305.1c2.9,1.5,7.6,3.1,12.4,3.1c5.1,0,7.8-2.1,7.8-5.3c0-3.1-2.3-4.8-8.3-6.9
			c-8.2-2.9-13.6-7.5-13.6-14.6c0-8.4,7.1-14.8,18.7-14.8c5.6,0,9.7,1.1,12.6,2.5l-2.5,8.9c-1.9-1-5.5-2.3-10.2-2.3
			c-4.8,0-7.2,2.3-7.2,4.8c0,3.1,2.7,4.5,9.1,7c8.7,3.2,12.7,7.8,12.7,14.7c0,8.3-6.3,15.3-19.8,15.3c-5.6,0-11.2-1.5-14-3.1
			L959.4,305.1z"/>
		<path class="st0" d="M1009.7,267.3v49.3h-11.1v-49.3H1009.7z"/>
		<path class="st0" d="M1019.3,316.6v-49.3h13l10.2,18.1c2.9,5.2,5.8,11.3,8,16.9h0.1c-0.7-6.5-0.9-13.2-0.9-20.6v-14.3h10.2v49.3
			h-11.7l-10.5-19c-2.9-5.3-6.2-11.6-8.6-17.4h-0.3c0.4,6.6,0.5,13.5,0.5,21.6v14.8H1019.3z"/>
		<path class="st0" d="M1099.2,295.8H1081v11.7h20.3v9.1h-31.4v-49.3h30.4v9.1H1081v10.2h18.1V295.8z"/>
		<path class="st0" d="M1109.2,305.1c2.9,1.5,7.6,3.1,12.4,3.1c5.1,0,7.8-2.1,7.8-5.3c0-3.1-2.3-4.8-8.3-6.9
			c-8.2-2.9-13.6-7.5-13.6-14.6c0-8.4,7.1-14.8,18.7-14.8c5.6,0,9.7,1.1,12.6,2.5l-2.5,8.9c-1.9-1-5.5-2.3-10.2-2.3
			c-4.8,0-7.2,2.3-7.2,4.8c0,3.1,2.7,4.5,9.1,7c8.7,3.2,12.7,7.8,12.7,14.7c0,8.3-6.3,15.3-19.8,15.3c-5.6,0-11.2-1.5-14-3.1
			L1109.2,305.1z"/>
		<path class="st0" d="M1148.8,305.1c2.9,1.5,7.6,3.1,12.4,3.1c5.1,0,7.8-2.1,7.8-5.3c0-3.1-2.3-4.8-8.3-6.9
			c-8.2-2.9-13.6-7.5-13.6-14.6c0-8.4,7.1-14.8,18.7-14.8c5.6,0,9.7,1.1,12.6,2.5l-2.5,8.9c-1.9-1-5.5-2.3-10.2-2.3
			c-4.8,0-7.2,2.3-7.2,4.8c0,3.1,2.7,4.5,9.1,7c8.7,3.2,12.7,7.8,12.7,14.7c0,8.3-6.3,15.3-19.8,15.3c-5.6,0-11.2-1.5-14-3.1
			L1148.8,305.1z"/>
		<path class="st0" d="M1202.7,268c3.4-0.6,8.3-1,15.1-1c6.9,0,11.8,1.3,15.1,4c3.2,2.4,5.3,6.5,5.3,11.3c0,4.9-1.5,9-4.5,11.7
			c-3.8,3.5-9.4,5.2-16,5.2c-1.5,0-2.8-0.1-3.8-0.3v17.7h-11V268z M1213.7,290.4c1,0.2,2,0.3,3.7,0.3c5.9,0,9.6-3,9.6-8
			c0-4.5-3.1-7.2-8.8-7.2c-2.2,0-3.7,0.1-4.5,0.4V290.4z"/>
		<path class="st0" d="M1252.2,304l-3.4,12.7h-11.6l15.1-49.3h14.6l15.4,49.3h-12l-3.8-12.7H1252.2z M1264.7,295.6l-3.1-10.5
			c-0.8-2.9-1.7-6.7-2.4-9.5h-0.2c-0.7,2.9-1.5,6.7-2.2,9.5l-3,10.5H1264.7z"/>
		<path class="st0" d="M1288.8,268c3.6-0.7,8.9-1.1,14.8-1.1c7.3,0,12.4,1.1,15.9,4c3,2.3,4.6,5.8,4.6,10.3c0,6.2-4.5,10.5-8.7,12.1
			v0.2c3.4,1.4,5.3,4.6,6.6,9.1c1.5,5.6,3,12.1,4,14h-11.4c-0.7-1.5-2-5.4-3.4-11.5c-1.4-6.2-3.5-7.8-8.1-7.9h-3.3v19.4h-11V268z
			 M1299.8,289.2h4.4c5.6,0,8.9-2.8,8.9-7.1c0-4.5-3.1-6.8-8.2-6.8c-2.7,0-4.2,0.1-5,0.4V289.2z"/>
		<path class="st0" d="M1341.7,276.7h-13.3v-9.4h37.9v9.4h-13.5v39.9h-11.1V276.7z"/>
		<path class="st0" d="M1372.2,316.6v-49.3h13l10.2,18.1c2.9,5.2,5.8,11.3,8,16.9h0.1c-0.7-6.5-0.9-13.2-0.9-20.6v-14.3h10.2v49.3
			h-11.7l-10.5-19c-2.9-5.3-6.2-11.6-8.6-17.4h-0.3c0.4,6.6,0.5,13.5,0.5,21.6v14.8H1372.2z"/>
		<path class="st0" d="M1452,295.8h-18.1v11.7h20.3v9.1h-31.4v-49.3h30.4v9.1h-19.2v10.2h18.1V295.8z"/>
		<path class="st0" d="M1461.8,268c3.6-0.7,8.9-1.1,14.8-1.1c7.3,0,12.4,1.1,15.9,4c3,2.3,4.6,5.8,4.6,10.3c0,6.2-4.5,10.5-8.7,12.1
			v0.2c3.4,1.4,5.3,4.6,6.6,9.1c1.5,5.6,3,12.1,4,14h-11.4c-0.7-1.5-2-5.4-3.4-11.5c-1.4-6.2-3.5-7.8-8.1-7.9h-3.3v19.4h-11V268z
			 M1472.8,289.2h4.4c5.6,0,8.9-2.8,8.9-7.1c0-4.5-3.1-6.8-8.2-6.8c-2.7,0-4.2,0.1-5,0.4V289.2z"/>
	</g>
</g>
</svg>
