<svg xmlns="http://www.w3.org/2000/svg" xmlns:xlink="http://www.w3.org/1999/xlink" width="80" height="49" viewBox="0 0 80 49">
    <defs>
        <path id="a" d="M.018.537h15.678v16.155H.018z"/>
    </defs>
    <g fill="none" fill-rule="evenodd">
        <path fill="#FFF" d="M.046 11.13c.32-.526 2.674-.939 4.686-1.29 0 0 3.183-.48 3.463-.503.294-.029 1.356-.24 1.459.558.126.965-.759.927-1.363 1.424-.495.406-.815 2.442-1.025 16.694-.23 15.037-.236 15.94.477 16.695 1.127 1.054 2.84.301 3.126.535.287.233.356.972.159 1.217-.192.24-1.045-.032-5.022.616-2.28.368-4.164 1.597-4.545 1.356-.166-.106-.312-.39-.28-.933.019-.351 1.24-.773 1.814-2.04.274-.617.612-4.934.528-17.384-.082-12.445.158-16.228-.082-16.304-.25-.075-2.923.86-3.265.596-.295-.22-.13-1.236-.13-1.236"/>
        <path fill="#FFF" d="M9.608 27.704s2.566-2.531 7.705-9.054c5.13-6.537 6.097-8.079 7.312-9.178.22-.195.95-.075 1.446-.075.502-.007 1.164-.045 1.293.21.259.546-1.552 3.271-6.629 9.349-4.379 5.251-4.684 5.23-6.83 7.687.759 1.198 1.606 3.123 6.442 9.963 4.833 6.828 7.238 8.354 8.348 9.166 1.093.82 2.332 1.084 2.258 1.696-.063.524-1.36.353-1.815.353-.443 0-3.277-.202-4.917-1.285-1.638-1.078-3.738-2.868-7.643-8.421-3.893-5.548-6.97-10.41-6.97-10.41"/>
        <path fill="#FFF" d="M28.384 26.458c1.36 3.478 2.757 6.974 2.757 6.974s5.99-11.66 6.965-13.829c.138-.31.343-.408.472-.392.328.038.367.113.434 1.71.069 1.696-.097 2.496-.311 2.884-1.25 2.303-10.271 18.188-10.522 18.567-.256.377-.366.467-.48.565-.114.106-1.072.328-1.293.02-.207-.308.271-.878.433-1.196.153-.332 2.315-4.11 2.315-4.913 0-1.298-1.827-4.765-5.017-12.429-.305-.747-.727-1.508-1.363-1.696-.846-.241-1.57.504-1.934.437-.365-.076-.542-.67-.493-.894.039-.222 1.209-.62 2.54-1.269 1.334-.649 2.376-1.304 2.711-1.289.214.016 1.476 3.384 2.786 6.75M42.424 36.117c-1.884 0-2.246-1.486-2.246-2.164 0-4.146 6.956-5.33 6.956-5.33s.512 7.494-4.71 7.494m11.008.654c-.08-.194-.242-.316-.394-.316-2.765 0-3.22-2.894-3.22-4.53 0-1.635.218-5.637.135-6.866-.084-1.22-.22-3.25-1.187-4.115-.959-.874-2.064-.994-3.809-.994-1.757 0-3.031.285-3.735.994-.713.702-.713 2.185-.538 2.361.302.308 3.665-1.692 5.273-.039 1.65 1.71 1.14 4.22 1.14 4.22s-10.177 1.485-10.177 7.74c0 .695.282 3.174 3.288 3.174 3.988 0 6.654-3.573 6.654-3.573s.137 3.522 3.144 3.522c2.41 0 3.365-1.102 3.426-1.201.073-.097.083-.173 0-.377M42.636 14.687c0 .68-.472 1.23-1.026 1.23-.588 0-1.052-.55-1.052-1.23 0-.677.464-1.226 1.052-1.226.554 0 1.026.55 1.026 1.226M48.371 14.47c0 .685-.48 1.252-1.083 1.252-.61 0-1.087-.567-1.087-1.252 0-.694.478-1.25 1.087-1.25.603 0 1.083.556 1.083 1.25M56.852 22.926c.383-.34 3.903-2.713 6.653-2.713 2.742 0 3.84 2.276 3.84 8.615 0 3.986-.184 4.854-.184 6.112 0 .75.387.75.706.75.305 0 1.036-.388 1.26-.388.23 0 .363.387.363.686 0 .618-1.25.762-2.59 1.342-1.257.549-2.458 1.436-2.77 1.436-.26 0-.412-.374-.412-.488 0-.172.831-2.435.831-7.641 0-5.201-1.018-8.063-3.899-8.063-2.04 0-3.557 1.885-3.557 1.885s.016 2.269.016 4.662c0 2.397.031 8.05-.19 8.45-.158.27-.434.232-1.05.464-.625.231-1.51.736-1.522.1-.295-7.64.997-15.382-2.27-15.382-.344 0-.448.143-.74.143-.273 0-.448-.355-.448-.61 0-.385.8-.528 1.95-1.137 1.156-.613 1.713-1.223 1.94-1.223.977 0 2.01 2.623 2.073 3M74.232 37.48c.297-.64.13-4.628.13-12.858 0-1.432.202-3.407.202-4.054 0-.264-.465-.647-.659-.647s-1.478.64-2.14.96c-.967.47-3.076.778-3.076 1.389 0 .618.336.8.438.768.27-.043.575-.36 1.08-.285 1.528.218 1.166 1.017 1.166 14.019 0 1.377.076 1.77.237 1.87.17.086 1.008-.31 1.434-.49.424-.166.978-.25 1.188-.671"/>
        <g transform="translate(63.885 .033)">
            <mask id="b" fill="#fff">
                <use xlink:href="#a"/>
            </mask>
            <path fill="#FFF" d="M6.541 7.18c-1.993 2.855-4.225 3.7-5.646 3.467A7.1 7.1 0 0 1 .64 8.739c0-4.017 3.295-7.265 7.376-7.265 2.736 0 5 1.494 6.283 3.67-.363-.524-3.572-4.01-7.759 2.035M11.7 1.577A7.592 7.592 0 0 0 7.864.537c-2.74 0-5.396 1.487-6.835 4.125-2.08 3.803-.842 8.6 2.726 10.853.5-.083 1.022-.452 1.453-1.358 1.447-3.111 4.548-4.317 7.698-2.194.117.1.262.213.402.346-1.523.08-2.32 1.918-2.32 1.918 0 .008-.116.202-.175.309-.549.928-1.31 1.698-2.202 2.156 2.457-.25 4.766-1.691 6.075-4.086 2.122-3.897.792-8.836-2.987-11.029" mask="url(#b)"/>
        </g>
        <path fill="#FFF" d="M71.247 13.964c-1.453 2.54-3.35 3.438-5.648 2.044.027.037 3.904 2.977 6.336-1.124 1.87-3.188 3.835-2.7 3.835-2.7s-.424-.109-1.02-.109c-1.021 0-2.58.3-3.503 1.89M77.948 21.283h.25c.198 0 .396-.008.396-.247 0-.212-.182-.231-.334-.231h-.312v.478zm-.203-.671h.536c.343 0 .51.128.51.43 0 .272-.172.384-.387.416l.43.661h-.23l-.393-.648h-.263v.648h-.203v-1.507zm.469 1.862c.593 0 1.072-.482 1.072-1.13 0-.618-.479-1.101-1.072-1.101-.6 0-1.072.483-1.072 1.116 0 .633.472 1.115 1.072 1.115zm0-2.419c.695 0 1.263.557 1.263 1.288 0 .755-.568 1.32-1.263 1.32-.7 0-1.271-.565-1.271-1.304 0-.747.572-1.304 1.271-1.304z"/>
    </g>
</svg>
