<svg width="53" height="32" viewBox="0 0 53 32" fill="none" xmlns="http://www.w3.org/2000/svg">
<path fill-rule="evenodd" clip-rule="evenodd" d="M0.0300404 7.26876C0.23902 6.92525 1.77633 6.65554 3.09028 6.42631C3.09028 6.42631 5.16898 6.11284 5.35184 6.09782C5.54384 6.07888 6.23739 5.94109 6.30465 6.46223C6.38694 7.09243 5.80898 7.06762 5.41453 7.39219C5.09126 7.65733 4.88228 8.98697 4.74514 18.2944C4.59494 28.1145 4.59102 28.7042 5.05665 29.1973C5.79265 29.8856 6.91135 29.3938 7.09812 29.5466C7.28555 29.6988 7.33061 30.1814 7.20196 30.3414C7.07657 30.4981 6.51951 30.3205 3.92228 30.7437C2.43331 30.984 1.20294 31.7866 0.954122 31.6292C0.845714 31.56 0.750367 31.3746 0.771265 31.0199C0.783673 30.7907 1.58106 30.5151 1.95592 29.6877C2.13486 29.2848 2.35559 26.4655 2.30073 18.3349C2.24718 10.2075 2.40392 7.73701 2.24718 7.68737C2.08392 7.63839 0.338285 8.24901 0.114938 8.0766C-0.0777147 7.93292 0.0300404 7.26941 0.0300404 7.26941" fill="#002855"/>
<path fill-rule="evenodd" clip-rule="evenodd" d="M6.27466 18.0922C6.27466 18.0922 7.95041 16.4393 11.3065 12.1794C14.6567 7.91036 15.2882 6.90334 16.0817 6.18563C16.2254 6.05828 16.7021 6.13665 17.026 6.13665C17.3538 6.13208 17.7862 6.10726 17.8704 6.27379C18.0396 6.63036 16.8569 8.40995 13.5413 12.3793C10.6815 15.8085 10.4823 15.7948 9.08086 17.3993C9.57654 18.1817 10.1297 19.4389 13.2879 23.9058C16.4441 28.3649 18.0147 29.3615 18.7396 29.8917C19.4534 30.4273 20.2626 30.5997 20.2142 30.9993C20.1731 31.3415 19.3261 31.2299 19.0289 31.2299C18.7396 31.2299 16.8889 31.098 15.8178 30.3907C14.7481 29.6867 13.3767 28.5177 10.8265 24.8913C8.28413 21.2681 6.27466 18.0929 6.27466 18.0929" fill="#002855"/>
<path fill-rule="evenodd" clip-rule="evenodd" d="M18.5365 17.2785C19.4246 19.5499 20.337 21.833 20.337 21.833C20.337 21.833 24.2488 14.2183 24.8855 12.8018C24.9757 12.5993 25.1095 12.5353 25.1938 12.5458C25.408 12.5706 25.4335 12.6196 25.4772 13.6625C25.5223 14.7701 25.4139 15.2926 25.2741 15.546C24.4578 17.05 18.5665 27.4238 18.4026 27.6713C18.2354 27.9175 18.1636 27.9763 18.0891 28.0403C18.0147 28.1095 17.3891 28.2545 17.2447 28.0534C17.1095 27.8522 17.4217 27.48 17.5275 27.2723C17.6274 27.0555 19.0393 24.5882 19.0393 24.0638C19.0393 23.2162 17.8462 20.952 15.7629 15.9469C15.5637 15.4591 15.2882 14.9621 14.8728 14.8393C14.3203 14.682 13.8475 15.1685 13.6098 15.1247C13.3714 15.0751 13.2558 14.6872 13.2878 14.5409C13.3133 14.3959 14.0774 14.136 14.9466 13.7122C15.8178 13.2883 16.4983 12.8606 16.7171 12.8704C16.8568 12.8808 17.681 15.0803 18.5365 17.2785V17.2785ZM27.7055 23.5864C26.4751 23.5864 26.2387 22.616 26.2387 22.1732C26.2387 19.4656 30.7814 18.6924 30.7814 18.6924C30.7814 18.6924 31.1157 23.5864 27.7055 23.5864ZM34.8944 24.0135C34.8421 23.8868 34.7363 23.8072 34.6371 23.8072C32.8313 23.8072 32.5342 21.9172 32.5342 20.8488C32.5342 19.7811 32.6766 17.1675 32.6224 16.3649C32.5675 15.5682 32.4787 14.2424 31.8472 13.6775C31.2209 13.1068 30.4993 13.0284 29.3597 13.0284C28.2122 13.0284 27.3802 13.2145 26.9205 13.6775C26.4548 14.136 26.4548 15.1045 26.5691 15.2194C26.7664 15.4206 28.9626 14.1144 30.0127 15.194C31.0903 16.3107 30.7572 17.9499 30.7572 17.9499C30.7572 17.9499 24.111 18.9197 24.111 23.0046C24.111 23.4584 24.2952 25.0774 26.2583 25.0774C28.8627 25.0774 30.6037 22.744 30.6037 22.744C30.6037 22.744 30.6932 25.0441 32.657 25.0441C34.2308 25.0441 34.8545 24.3244 34.8944 24.2597C34.942 24.1964 34.9486 24.1468 34.8944 24.0135V24.0135ZM27.8439 9.59134C27.8439 10.0354 27.5357 10.3946 27.1739 10.3946C26.7899 10.3946 26.4868 10.0354 26.4868 9.59134C26.4868 9.14922 26.7899 8.79069 27.1739 8.79069C27.5357 8.79069 27.8439 9.14987 27.8439 9.59134V9.59134ZM31.5892 9.44963C31.5892 9.89697 31.2757 10.2673 30.8819 10.2673C30.4836 10.2673 30.1721 9.89697 30.1721 9.44963C30.1721 8.9964 30.4842 8.6333 30.8819 8.6333C31.2757 8.6333 31.5892 8.9964 31.5892 9.44963ZM37.1278 14.9719C37.3779 14.7499 39.6767 13.2002 41.4726 13.2002C43.2633 13.2002 43.9804 14.6865 43.9804 18.8263C43.9804 21.4294 43.8602 21.9962 43.8602 22.8178C43.8602 23.3076 44.113 23.3076 44.3213 23.3076C44.5205 23.3076 44.9979 23.0542 45.1442 23.0542C45.2944 23.0542 45.3812 23.3069 45.3812 23.5022C45.3812 23.9058 44.5649 23.9998 43.6898 24.3786C42.8689 24.7371 42.0846 25.3164 41.8808 25.3164C41.711 25.3164 41.6117 25.0722 41.6117 24.9977C41.6117 24.8854 42.1544 23.4075 42.1544 20.0077C42.1544 16.6111 41.4896 14.742 39.6082 14.742C38.2759 14.742 37.2852 15.9731 37.2852 15.9731C37.2852 15.9731 37.2957 17.4549 37.2957 19.0176C37.2957 20.583 37.3159 24.2748 37.1716 24.536C37.0684 24.7123 36.8882 24.6875 36.4859 24.839C36.0777 24.9899 35.4997 25.3197 35.4919 24.9043C35.2993 19.9149 36.143 14.8589 34.0095 14.8589C33.7848 14.8589 33.7169 14.9523 33.5262 14.9523C33.3479 14.9523 33.2336 14.7205 33.2336 14.554C33.2336 14.3025 33.7561 14.2091 34.5071 13.8114C35.262 13.4111 35.6258 13.0127 35.774 13.0127C36.4121 13.0127 37.0867 14.7257 37.1278 14.9719V14.9719ZM48.478 24.4766C48.672 24.0586 48.5629 21.4542 48.5629 16.0795C48.5629 15.1443 48.6948 13.8545 48.6948 13.432C48.6948 13.2596 48.3912 13.0095 48.2645 13.0095C48.1378 13.0095 47.2993 13.4274 46.8669 13.6364C46.2354 13.9433 44.8581 14.1445 44.8581 14.5435C44.8581 14.9471 45.0775 15.066 45.1442 15.0451C45.3205 15.017 45.5197 14.81 45.8495 14.8589C46.8473 15.0013 46.6109 15.5231 46.6109 24.0142C46.6109 24.9135 46.6606 25.1701 46.7657 25.2354C46.8767 25.2916 47.424 25.033 47.7022 24.9154C47.9791 24.807 48.3409 24.7522 48.478 24.4772" fill="#002855"/>
<path fill-rule="evenodd" clip-rule="evenodd" d="M45.9925 4.71036C44.691 6.57485 43.2333 7.12668 42.3053 6.97452C42.1935 6.56866 42.1375 6.14946 42.1388 5.72848C42.1388 3.10513 44.2906 0.983989 46.9558 0.983989C48.7426 0.983989 50.2211 1.95966 51.059 3.38072C50.8219 3.03852 48.7262 0.761948 45.9919 4.7097L45.9925 4.71036ZM49.3617 1.05125C48.6017 0.606421 47.7371 0.371993 46.8565 0.37207C45.0671 0.37207 43.3326 1.34317 42.3928 3.06595C41.0345 5.54954 41.843 8.68227 44.1731 10.1536C44.4996 10.0994 44.8405 9.85844 45.122 9.26676C46.067 7.23509 48.0921 6.4475 50.1493 7.83395C50.2257 7.89925 50.3204 7.97305 50.4118 8.05991C49.4172 8.11215 48.8967 9.31248 48.8967 9.31248C48.8967 9.3177 48.8209 9.4444 48.7824 9.51427C48.4239 10.1203 47.9269 10.6232 47.3444 10.9223C48.9489 10.759 50.4568 9.81795 51.3117 8.25387C52.6975 5.70889 51.8289 2.48342 49.361 1.05125" fill="#002855"/>
<path fill-rule="evenodd" clip-rule="evenodd" d="M46.5287 9.11938C45.5798 10.7782 44.3409 11.3646 42.8402 10.4542C42.8578 10.4784 45.3898 12.3984 46.978 9.72019C48.1992 7.63823 49.4825 7.95693 49.4825 7.95693C49.4825 7.95693 49.2056 7.88574 48.8164 7.88574C48.1496 7.88574 47.1315 8.08166 46.5287 9.12003V9.11938ZM50.9049 13.8991H51.0681C51.1974 13.8991 51.3267 13.8939 51.3267 13.7378C51.3267 13.5994 51.2079 13.587 51.1086 13.587H50.9049V13.8991ZM50.7723 13.4609H51.1223C51.3463 13.4609 51.4554 13.5445 51.4554 13.7417C51.4554 13.9194 51.3431 13.9925 51.2027 14.0134L51.4835 14.4451H51.3333L51.0766 14.0219H50.9049V14.4451H50.7723V13.4609ZM51.0786 14.6769C51.4658 14.6769 51.7787 14.3622 51.7787 13.939C51.7787 13.5354 51.4658 13.2199 51.0786 13.2199C50.6867 13.2199 50.3785 13.5354 50.3785 13.9488C50.3785 14.3622 50.6867 14.6769 51.0786 14.6769ZM51.0786 13.0972C51.5325 13.0972 51.9034 13.4609 51.9034 13.9383C51.9034 14.4314 51.5325 14.8004 51.0786 14.8004C50.6214 14.8004 50.2485 14.4314 50.2485 13.9488C50.2485 13.4609 50.6221 13.0972 51.0786 13.0972V13.0972Z" fill="#002855"/>
</svg>
