<svg xmlns="http://www.w3.org/2000/svg" width="24" height="20" viewBox="0 0 24 20">
    <g fill="#002855">
        <path d="M4.862 15.797c-1.93 0-3.496-1.565-3.496-3.496v-7.44c0-1.93 1.565-3.495 3.496-3.495h11.815c1.93 0 3.495 1.565 3.495 3.496h.886c0-2.42-1.961-4.382-4.381-4.382H4.862C2.442.48.48 2.442.48 4.862v7.44c0 2.419 1.962 4.38 4.382 4.38v-.885z"/>
        <path d="M19.963 3.815c1.958 0 3.545 1.587 3.545 3.545v8.227c0 1.958-1.587 3.545-3.545 3.545H7.36c-1.958 0-3.545-1.587-3.545-3.545V7.36c0-1.958 1.587-3.545 3.545-3.545h12.603zm0 .887H7.36c-1.468 0-2.658 1.19-2.658 2.658v8.227c0 1.468 1.19 2.658 2.658 2.658h12.603c1.468 0 2.659-1.19 2.659-2.658V7.36c0-1.468-1.19-2.658-2.659-2.658z"/>
        <path d="M9.647 7.475c1.244 0 2.251 1.008 2.251 2.25 0 1.244-1.007 2.251-2.25 2.251-1.244 0-2.251-1.007-2.251-2.25s1.007-2.251 2.25-2.251zm0 .886c-.753 0-1.364.611-1.364 1.365 0 .753.61 1.364 1.364 1.364.754 0 1.365-.61 1.365-1.364 0-.754-.61-1.365-1.365-1.365z"/>
        <path d="M6.72 15.334v-1.506c0-.934.848-1.716 1.9-1.716h1.765c1.052 0 1.9.782 1.9 1.716v1.506h.886v-1.506c0-1.44-1.26-2.602-2.786-2.602H8.62c-1.526 0-2.786 1.161-2.786 2.602v1.506h.886zM14.482 9.706L20.394 9.706 20.394 8.706 14.482 8.706zM14.482 14.629L20.394 14.629 20.394 13.629 14.482 13.629zM14.482 12.167L19.569 12.167 19.569 11.167 14.482 11.167z"/>
    </g>
</svg>
